<svg version="1.1" viewBox="0.0 0.0 1122.5196850393702 793.7007874015748" fill="none" stroke="none" stroke-linecap="square" stroke-miterlimit="10" xmlns:xlink="http://www.w3.org/1999/xlink" xmlns="http://www.w3.org/2000/svg"><clipPath id="p_1.0"><path d="m0 0l1122.5197 0l0 793.7008l-1122.5197 0l0 -793.7008z" clip-rule="nonzero"/></clipPath><g clip-path="url(#p_1.0)"><path fill="#000000" fill-opacity="0.0" d="m0 0l1122.5197 0l0 793.7008l-1122.5197 0z" fill-rule="evenodd"/><path fill="#feda00" d="m444.3201 630.8025l-8.795471 -1.3710938l-10.263489 -1.9694214l-11.402039 -2.7286987l-12.233337 -3.5977783l6.5328064 4.527588l6.679199 4.33197l6.801544 4.147949l6.924835 3.9523315l5.822876 -2.4714355l5.2603455 -2.472351l4.6727295 -2.34906z" fill-rule="evenodd"/><path fill="#feda00" d="m781.3118 231.15294l-33.543396 -36.967255l-39.69763 -30.383545l-44.92047 -22.858475l-49.2146 -14.401695l-52.5542 -5.0170364l-44.664185 3.6093369l-42.376434 10.437782l-39.51367 16.69101l-36.075806 22.393097l-32.08795 27.519974l-27.524994 32.072586l-22.386993 36.074097l-16.699005 39.5119l-10.434937 42.362946l-3.6083374 44.652283l2.7279358 38.936676l7.95166 37.260162l12.795868 35.204987l17.261536 32.79425l43.733673 9.606262l38.52249 3.1324463l32.492493 -1.4067383l25.615845 -4.038147l-29.310883 -15.430725l-34.253326 -26.100677l-28.858154 -37.84793l-13.114716 -50.708923l43.99185 26.700012l40.859314 16.997406l35.904358 9.384644l29.16446 3.8309631l-24.123749 -22.809357l-25.800781 -34.2511l-17.040924 -44.052002l2.1894836 -52.201416l34.890045 37.738068l34.669464 27.300293l31.977173 18.587189l26.790955 11.612335l-16.820312 -28.21756l-15.255066 -39.87903l-4.0129395 -47.050446l16.907043 -49.7782l23.451416 45.239044l25.579224 35.33893l25.348022 26.394592l22.778076 18.464844l-8.342712 -31.802826l-3.5111084 -42.24057l9.3098755 -46.168854l30.118103 -43.56253l9.162476 49.655823l14.668457 40.943695l17.150696 32.231567l16.588257 23.51944l0.44018555 -26.419647l5.0773315 -33.711517l13.102173 -35.902588l24.527344 -32.989853z" fill-rule="evenodd"/><path fill="#feda00" d="m831.6766 344.02414l-4.4647217 -19.248169l-5.798767 -18.698029l-7.0462036 -18.11026l-8.270508 -17.461823l1.8966675 30.078125l4.3548584 26.283783l5.822876 22.259155l6.337219 18.024536l1.6269531 -6.314911l2.3118286 -7.965393l3.2297974 -8.847015z" fill-rule="evenodd"/><path fill="#feda00" d="m836.5092 408.15585l-18.032104 -4.1604614l-18.423218 -3.022583l-18.791199 -1.8470459l-19.108093 -0.62435913l-44.994568 3.2913818l-42.85327 9.569641l-40.198547 15.344971l-37.066956 20.654907l-33.42108 25.501404l-29.274292 29.857483l-24.638123 33.736572l-19.512665 37.137817l-13.86026 40.06305l-7.731079 42.510376l22.142334 6.876587l22.912903 5.017029l23.57373 3.0717163l24.148804 1.0405884l48.29663 -4.2095947l45.544617 -12.187561l42.08264 -19.419678l37.874207 -25.941711l32.981873 -31.742126l27.341003 -36.819824l20.980652 -41.164337l13.909363 -44.81125l6.116699 -47.722992z" fill-rule="evenodd"/></g></svg>